<?xml version="1.0" encoding="UTF-8"?>
<svg version="1.1" xmlns="http://www.w3.org/2000/svg" width="512" height="512">
<path d="M0 0 C1.51774716 -0.00418201 3.03549118 -0.00966424 4.55322951 -0.01631981 C8.68881069 -0.03067967 12.82419098 -0.02655957 16.95978272 -0.019153 C21.43367667 -0.01439999 25.90752849 -0.02694999 30.38140869 -0.03717041 C39.13275477 -0.05432247 47.88402894 -0.05520585 56.63538746 -0.04995751 C63.75260586 -0.04590765 70.86980309 -0.04736904 77.98702049 -0.05270576 C79.00197249 -0.05345419 80.01692449 -0.05420261 81.06263262 -0.05497371 C83.12485698 -0.05650527 85.18708134 -0.05804362 87.24930569 -0.05958868 C106.56688979 -0.07330087 125.88443333 -0.06788517 145.2020165 -0.05640347 C162.85050508 -0.04647378 180.49888879 -0.05940948 198.1473612 -0.08333766 C216.29586007 -0.10775721 234.44431015 -0.11732943 252.59282511 -0.11068493 C262.77098846 -0.10719889 272.94907119 -0.10938404 283.12722206 -0.12693596 C291.79212366 -0.14169374 300.45688787 -0.14224684 309.12178687 -0.12486505 C313.53700137 -0.11638181 317.95197084 -0.11413952 322.36717224 -0.1295166 C326.41945967 -0.14345424 330.47129424 -0.13848556 334.52355608 -0.11927737 C335.97902673 -0.11554461 337.43453447 -0.11835942 338.88997183 -0.12888902 C352.03093974 -0.21709822 365.19117489 1.80551189 376.88615417 8.13768005 C377.54510681 8.48274597 378.20405945 8.82781189 378.88298035 9.18333435 C399.04360049 20.0069214 414.63686273 37.39301443 421.57365417 59.38768005 C424.31356033 68.92969348 425.00618639 77.92925564 424.96133423 87.81402588 C424.96551624 89.33177304 424.97099847 90.84951706 424.97765404 92.36725539 C424.9920139 96.50283657 424.9878938 100.63821686 424.98048723 104.7738086 C424.97573421 109.24770255 424.98828422 113.72155437 424.99850464 118.19543457 C425.01565669 126.94678065 425.01654008 135.69805482 425.01129173 144.44941334 C425.00724188 151.56663174 425.00870327 158.68382897 425.01403999 165.80104637 C425.01478842 166.81599837 425.01553684 167.83095037 425.01630794 168.8766585 C425.0178395 170.93888286 425.01937785 173.00110721 425.02092291 175.06333157 C425.0346351 194.38091567 425.0292194 213.69845921 425.01773769 233.01604237 C425.00780801 250.66453096 425.02074371 268.31291466 425.04467189 285.96138708 C425.06909144 304.10988595 425.07866366 322.25833603 425.07201916 340.40685099 C425.06853311 350.58501434 425.07071827 360.76309707 425.08827019 370.94124794 C425.10302797 379.60614953 425.10358107 388.27091375 425.08619928 396.93581275 C425.07771604 401.35102725 425.07547375 405.76599671 425.09085083 410.18119812 C425.10478847 414.23348555 425.09981979 418.28532012 425.08061159 422.33758195 C425.07687884 423.79305261 425.07969365 425.24856035 425.09022325 426.70399771 C425.17843245 439.84496562 423.15582234 453.00520077 416.82365417 464.70018005 C416.47858826 465.35913269 416.13352234 466.01808533 415.77799988 466.69700623 C404.95441283 486.85762637 387.5683198 502.45088861 365.57365417 509.38768005 C356.03164075 512.12758621 347.03207859 512.82021227 337.14730835 512.77536011 C335.62956119 512.77954211 334.11181717 512.78502435 332.59407884 512.79167992 C328.45849766 512.80603978 324.32311737 512.80191968 320.18752563 512.79451311 C315.71363168 512.78976009 311.23977986 512.8023101 306.76589966 512.81253052 C298.01455358 512.82968257 289.26327941 512.83056596 280.51192089 512.82531761 C273.39470249 512.82126776 266.27750526 512.82272915 259.16028786 512.82806587 C257.63785986 512.82918851 257.63785986 512.82918851 256.08467573 512.83033382 C254.02245137 512.83186538 251.96022701 512.83340373 249.89800266 512.83494879 C230.58041856 512.84866098 211.26287502 512.84324528 191.94529185 512.83176357 C174.29680327 512.82183389 156.64841956 512.83476959 138.99994715 512.85869776 C120.85144828 512.88311731 102.7029982 512.89268953 84.55448323 512.88604504 C74.37631989 512.88255899 64.19823716 512.88474415 54.02008629 512.90229607 C45.35518469 512.91705385 36.69042048 512.91760695 28.02552148 512.90022516 C23.61030698 512.89174192 19.19533751 512.88949963 14.78013611 512.90487671 C10.72784867 512.91881435 6.67601411 512.91384567 2.62375227 512.89463747 C1.16828162 512.89090472 -0.28722612 512.89371953 -1.74266348 512.90424912 C-14.88363139 512.99245833 -28.04386654 510.96984822 -39.73884583 504.63768005 C-40.39779846 504.29261414 -41.0567511 503.94754822 -41.735672 503.59202576 C-61.89629214 492.76843871 -77.48955438 475.38234568 -84.42634583 453.38768005 C-87.16625198 443.84566663 -87.85887805 434.84610447 -87.81402588 424.96133423 C-87.81820789 423.44358707 -87.82369012 421.92584304 -87.83034569 420.40810472 C-87.84470555 416.27252354 -87.84058545 412.13714324 -87.83317888 408.00155151 C-87.82842587 403.52765755 -87.84097587 399.05380574 -87.85119629 394.57992554 C-87.86834834 385.82857946 -87.86923173 377.07730529 -87.86398339 368.32594677 C-87.85993353 361.20872837 -87.86139492 354.09153114 -87.86673164 346.97431374 C-87.86748007 345.95936174 -87.86822849 344.94440973 -87.86899959 343.89870161 C-87.87053115 341.83647725 -87.8720695 339.77425289 -87.87361456 337.71202854 C-87.88732675 318.39444444 -87.88191105 299.0769009 -87.87042934 279.75931773 C-87.86049966 262.11082915 -87.87343536 244.46244544 -87.89736354 226.81397303 C-87.92178309 208.66547416 -87.93135531 190.51702408 -87.92471081 172.36850911 C-87.92122476 162.19034577 -87.92340992 152.01226304 -87.94096184 141.83411217 C-87.95571962 133.16921057 -87.95627272 124.50444636 -87.93889093 115.83954736 C-87.93040769 111.42433285 -87.9281654 107.00936339 -87.94354248 102.59416199 C-87.95748012 98.54187455 -87.95251144 94.49003999 -87.93330324 90.43777815 C-87.92957049 88.98230749 -87.9323853 87.52679975 -87.9429149 86.0713624 C-88.0311241 72.93039449 -86.00851399 59.77015934 -79.67634583 48.07518005 C-79.33127991 47.41622742 -78.98621399 46.75727478 -78.63069153 46.07835388 C-67.80710448 25.91773373 -50.42101145 10.3244715 -28.42634583 3.38768005 C-18.8843324 0.64777389 -9.88477024 -0.04485217 0 0 Z M150.83537292 138.41111755 C147.58707778 143.49977805 147.28196896 148.72353238 147.30622864 154.60345459 C147.30169752 155.41485797 147.29716641 156.22626134 147.29249799 157.0622527 C147.27986898 159.77275629 147.28147339 162.48305856 147.28312683 165.19358826 C147.27714064 167.14043943 147.27033489 169.08728823 147.26277161 171.03413391 C147.24511353 176.31728498 147.2404163 181.60037125 147.23914003 186.88354897 C147.23771776 190.18594488 147.2334467 193.48832435 147.2281456 196.79071617 C147.20964589 208.3164563 147.20147491 219.84215018 147.20304871 231.36790466 C147.20425006 242.10383844 147.18314874 252.83957116 147.15156138 263.57545406 C147.12539155 272.79942815 147.11468171 282.02333661 147.11595953 291.24734753 C147.11646895 296.75347443 147.11079625 302.25942262 147.08960342 307.76551247 C147.07020928 312.94564846 147.07010476 318.1254355 147.08463669 323.30558395 C147.08672442 325.20301893 147.08202605 327.10047582 147.06991577 328.99787331 C146.60235388 343.69998336 146.60235388 343.69998336 153.31321144 356.2379961 C158.7356341 361.30670782 163.63797561 362.88261919 171.01506042 362.6962738 C177.72972537 361.88641345 182.07710988 358.39757305 186.34709167 353.36424255 C189.52892554 348.23682874 189.86396259 343.05231824 189.83435059 337.16517639 C189.83817613 336.35306745 189.84200168 335.54095851 189.84594315 334.7042402 C189.85623644 331.99139461 189.85228799 329.27876211 189.84831238 326.56590271 C189.8526609 324.61742965 189.85784451 322.66895831 189.86380005 320.7204895 C189.87718659 315.4332669 189.87776906 310.14611581 189.87523675 304.85887957 C189.87416675 300.44289843 189.87905118 296.02693173 189.88384217 291.61095369 C189.89493629 281.19146606 189.89537537 270.77201448 189.889328 260.3525238 C189.88328817 249.60865049 189.89559972 238.86490813 189.91689807 228.12105715 C189.93451984 218.89200431 189.94051449 209.66299313 189.93726033 200.43392408 C189.93544816 194.92395236 189.93807703 189.41407405 189.95197487 183.90411758 C189.9645578 178.72156552 189.9626046 173.53921743 189.94956398 168.35666847 C189.94719963 166.45720539 189.9499278 164.55772793 189.9581871 162.65828133 C189.96866833 160.06000228 189.960543 157.4624059 189.94787598 154.864151 C189.9589374 153.74379611 189.9589374 153.74379611 189.97022229 152.60080779 C189.9060792 146.32205873 188.6270581 140.76471829 184.41740417 135.8915863 C183.64396667 135.25092224 182.87052917 134.61025818 182.07365417 133.95018005 C181.30021667 133.29146912 180.52677917 132.63275818 179.72990417 131.9540863 C169.61364186 124.60513488 157.95132727 130.18390459 150.83537292 138.41111755 Z M261.19865417 197.57518005 C254.19389413 205.0802801 253.99219712 211.98262077 254.05607605 221.8368988 C254.05064743 223.18469496 254.04352063 224.53248517 254.03483582 225.88026428 C254.01668699 229.52085706 254.02363458 233.1609936 254.03635216 236.80159378 C254.04652392 240.62286298 254.03707494 244.44409476 254.0308075 248.2653656 C254.02354318 254.68088244 254.03308669 261.09621471 254.0521698 267.51170349 C254.07393635 274.91452292 254.0668841 282.31690159 254.04486418 289.71971035 C254.02667534 296.09110742 254.0241688 302.4623723 254.03461885 308.83378696 C254.04083473 312.63237285 254.04174231 316.43075198 254.0284729 320.22932434 C254.01686399 323.80168016 254.02503077 327.37347123 254.04804993 330.94576645 C254.05580706 332.87167854 254.0440242 334.79763875 254.03153992 336.723526 C254.10862545 344.65528351 254.986787 350.23108677 260.31974792 356.41111755 C266.1346892 361.0576988 270.46816567 362.89421615 278.01506042 362.69236755 C284.05151034 361.97352314 288.10996417 359.34555129 291.94865417 354.70018005 C297.49221235 347.46877875 296.86309594 337.48994279 296.83244324 328.85057068 C296.83594788 327.62500961 296.83945251 326.39944855 296.84306335 325.13674927 C296.8503202 321.79991921 296.84867184 318.4633396 296.84230518 315.12652397 C296.8372093 311.61937522 296.84194655 308.1122365 296.84507751 304.60508728 C296.84870676 298.71765747 296.84394549 292.83027799 296.83439636 286.94285583 C296.8235138 280.1553292 296.82704012 273.36792276 296.83804917 266.58039904 C296.84715182 260.73213189 296.84839281 254.88390074 296.84317183 249.0356288 C296.84006846 245.55174765 296.83959756 242.06792284 296.84624481 238.58404541 C296.85314346 234.69757995 296.84355703 230.811247 296.83244324 226.92478943 C296.8364917 225.78374252 296.84054016 224.64269562 296.8447113 223.46707153 C296.79748793 214.52452417 296.41012559 206.55820207 290.57365417 199.38768005 C281.79023006 191.48259835 270.98538539 190.26610231 261.19865417 197.57518005 Z M44.23771667 244.64549255 C40.50802221 250.79160878 40.27681537 258.0362227 40.31486511 265.06932068 C40.31136047 265.88523178 40.30785583 266.70114288 40.304245 267.54177856 C40.29552187 270.2092518 40.30124324 272.87645464 40.30802917 275.54393005 C40.30667982 277.41522777 40.30473703 279.28652513 40.30223083 281.15782166 C40.29929232 285.06797137 40.30353613 288.97802933 40.31291199 292.88816833 C40.32430572 297.88116512 40.31773941 302.87394682 40.30576706 307.86693573 C40.29851401 311.72756041 40.30085217 315.58813473 40.30602264 319.44876099 C40.30734962 321.28902207 40.30574507 323.12928785 40.30106354 324.96954346 C40.29594139 327.54849733 40.30378766 330.12711068 40.31486511 332.70603943 C40.31081665 333.45435532 40.30676819 334.2026712 40.30259705 334.97366333 C40.37450725 344.08500716 41.91502904 351.83263353 48.57365417 358.38768005 C53.35846972 362.03276486 58.16457264 363.04976829 64.12052917 362.7665863 C70.81921948 361.73191599 75.09845442 358.38156579 79.34709167 353.2665863 C82.77322907 348.01826756 82.8706049 343.30527998 82.86418152 337.2263031 C82.87089874 336.31183411 82.87761597 335.39736511 82.88453674 334.45518494 C82.90351113 331.43653405 82.90744077 328.4181056 82.90959167 325.3993988 C82.91602034 323.29578562 82.92274875 321.19217333 82.92976379 319.08856201 C82.94173541 314.67953926 82.94544477 310.27059486 82.94425964 305.86155701 C82.94405654 300.22251534 82.97135017 294.58397815 83.00580406 288.94505596 C83.02808464 284.59977936 83.03209681 280.2546239 83.03104019 275.90929604 C83.03339472 273.83094864 83.04220988 271.75259784 83.05770493 269.67430687 C83.07738656 266.76159629 83.07151797 263.8499701 83.05949402 260.9372406 C83.07635254 259.65968651 83.07635254 259.65968651 83.09355164 258.35632324 C83.02374663 251.67356192 81.2045912 246.49915352 76.86271667 241.36424255 C65.28989412 231.96472001 53.86347713 234.17603994 44.23771667 244.64549255 Z " fill="#7AC4FA" transform="translate(87.42634582519531,-0.3876800537109375)"/>
</svg>
